<?xml version="1.0" encoding="iso-8859-1"?>
<!-- Generator: Adobe Illustrator 17.1.0, SVG Export Plug-In . SVG Version: 6.00 Build 0)  -->
<!DOCTYPE svg PUBLIC "-//W3C//DTD SVG 1.1//EN" "http://www.w3.org/Graphics/SVG/1.1/DTD/svg11.dtd">
<svg version="1.1" id="Capa_1" xmlns="http://www.w3.org/2000/svg" xmlns:xlink="http://www.w3.org/1999/xlink" x="0px" y="0px"
	 viewBox="0 0 465 465" style="enable-background:new 0 0 465 465;" xml:space="preserve">
<g>
	<path d="M105.032,258.647c1.83,0.154,3.666,0.237,5.507,0.237c28.671,0,53.892-18.334,62.758-45.621
		c5.448-16.767,4.041-34.65-3.963-50.358c-5.635-11.06-14.073-20.095-24.421-26.383c-0.086-0.056-0.175-0.104-0.262-0.155
		c-4.276-2.571-8.866-4.688-13.729-6.269c-6.629-2.154-13.495-3.246-20.406-3.246c-28.672,0-53.893,18.334-62.758,45.621
		c-11.246,34.611,7.763,71.919,42.375,83.165c4.77,1.55,9.663,2.541,14.607,2.979C104.837,258.63,104.934,258.64,105.032,258.647z
		 M159.031,208.629c-6.67,20.527-25.314,34.493-46.734,35.221c-0.35-3.767-0.547-7.563-0.547-11.35
		c0-29.66,10.671-57.776,30.172-79.852c5.808,4.528,10.604,10.31,14.047,17.066C162.153,181.853,163.24,195.673,159.031,208.629z
		 M62.023,177.108c6.852-21.088,26.339-35.256,48.493-35.256c5.335,0,10.642,0.845,15.771,2.512c0.769,0.25,1.528,0.52,2.279,0.803
		C107.98,169.6,96.75,200.237,96.75,232.5c0,3.187,0.118,6.38,0.339,9.562c-0.777-0.213-1.552-0.438-2.322-0.688
		C68.022,232.683,53.333,203.854,62.023,177.108z"/>
	<path d="M168.36,119.769c7,28.927,33.093,50.481,64.14,50.481c31.05,0,57.145-21.559,64.142-50.49
		c0.111-0.36,0.198-0.725,0.252-1.09c1.04-4.645,1.606-9.466,1.606-14.42c0-36.393-29.607-66-66-66s-66,29.607-66,66
		c0,4.952,0.566,9.772,1.605,14.416C168.16,119.036,168.248,119.403,168.36,119.769z M232.5,155.25
		c-22.015,0-40.815-14.023-47.942-33.605c15.119-6.564,31.215-9.895,47.942-9.895c16.727,0,32.823,3.331,47.942,9.895
		C273.315,141.227,254.516,155.25,232.5,155.25z M232.5,53.25c28.122,0,51,22.879,51,51c0,0.802-0.024,1.598-0.061,2.39
		c-16.14-6.559-33.227-9.89-50.939-9.89c-17.713,0-34.8,3.331-50.939,9.891c-0.037-0.793-0.061-1.589-0.061-2.391
		C181.5,76.129,204.378,53.25,232.5,53.25z"/>
	<path d="M271.5,232.5c0-21.505-17.495-39-39-39s-39,17.495-39,39s17.495,39,39,39S271.5,254.005,271.5,232.5z M232.5,256.5
		c-13.234,0-24-10.767-24-24s10.766-24,24-24s24,10.767,24,24S245.734,256.5,232.5,256.5z"/>
	<path d="M195.91,282.861c-11.354-8.249-24.751-12.609-38.746-12.609c-15.767,0-30.914,5.689-42.729,15.684
		c-0.362,0.264-0.697,0.554-1,0.869c-3.589,3.162-6.856,6.725-9.714,10.658c-10.362,14.262-14.55,31.706-11.792,49.118
		s12.131,32.709,26.394,43.07c11.354,8.249,24.751,12.609,38.746,12.609c21.086,0,41.064-10.173,53.443-27.211
		c2.922-4.021,5.304-8.271,7.196-12.656c0.17-0.33,0.317-0.674,0.438-1.032C229.46,333.854,221.016,301.102,195.91,282.861z
		 M187.093,294.996c17.807,12.938,24.775,35.327,19.037,55.355c-32.282-7.224-60.587-27.786-77.547-56.335
		c8.344-5.624,18.29-8.765,28.581-8.765C167.97,285.252,178.319,288.622,187.093,294.996z M157.068,387.261
		c-10.806,0-21.155-3.37-29.929-9.744c-11.021-8.007-18.264-19.827-20.395-33.282c-2.131-13.455,1.105-26.935,9.113-37.955
		c0.475-0.654,0.976-1.284,1.479-1.912c18.649,29.771,48.431,51.411,82.407,59.88c-0.44,0.669-0.892,1.332-1.367,1.986
		C188.811,379.399,173.368,387.261,157.068,387.261z"/>
	<path d="M351.552,286.794c-0.291-0.303-0.613-0.58-0.959-0.835c-11.819-10.009-26.978-15.707-42.757-15.707
		c-13.994,0-27.392,4.36-38.746,12.609c-25.103,18.239-33.548,50.988-22.237,78.495c0.122,0.362,0.271,0.71,0.442,1.043
		c1.892,4.384,4.273,8.631,7.194,12.65c12.379,17.038,32.357,27.211,53.443,27.211c13.994,0,27.392-4.36,38.746-12.609
		c14.263-10.361,23.636-25.658,26.394-43.07s-1.43-34.856-11.792-49.118C358.417,293.524,355.145,289.958,351.552,286.794z
		 M277.906,294.996c8.774-6.374,19.124-9.744,29.929-9.744c10.292,0,20.237,3.141,28.582,8.766
		c-16.961,28.549-45.266,49.111-77.547,56.334C253.132,330.323,260.099,307.935,277.906,294.996z M358.256,344.234
		c-2.131,13.455-9.375,25.275-20.395,33.282c-8.774,6.374-19.124,9.744-29.929,9.744c-16.3,0-31.742-7.861-41.308-21.027
		c-0.475-0.654-0.928-1.317-1.367-1.986c33.976-8.468,63.758-30.107,82.408-59.88c0.503,0.628,1.004,1.258,1.479,1.912
		C357.15,317.3,360.387,330.779,358.256,344.234z"/>
	<path d="M417.243,172.474c-8.866-27.287-34.086-45.621-62.758-45.621c-6.912,0-13.777,1.092-20.407,3.246
		c-4.942,1.606-9.604,3.764-13.938,6.393c-0.008,0.006-0.017,0.01-0.025,0.016c-10.36,6.288-18.808,15.329-24.448,26.398
		c-8.003,15.708-9.411,33.592-3.963,50.358c8.866,27.287,34.086,45.621,62.758,45.621c1.828,0,3.652-0.082,5.47-0.233
		c0.127-0.01,0.254-0.022,0.379-0.038c4.927-0.441,9.803-1.43,14.557-2.975C409.479,244.393,428.489,207.085,417.243,172.474z
		 M370.233,241.373c-0.77,0.25-1.545,0.476-2.322,0.688c0.222-3.182,0.339-6.375,0.339-9.562c0-12.116-1.598-24.134-4.75-35.72
		c-1.087-3.996-5.209-6.354-9.206-5.269c-3.997,1.088-6.355,5.209-5.268,9.206c2.803,10.303,4.224,20.996,4.224,31.782
		c0,3.787-0.196,7.583-0.547,11.35c-21.42-0.728-40.064-14.692-46.734-35.221c-4.209-12.956-3.122-26.776,3.063-38.914
		c3.44-6.753,8.233-12.531,14.036-17.058c5.4,6.121,10.183,12.764,14.238,19.831c1.386,2.415,3.913,3.768,6.512,3.768
		c1.266,0,2.549-0.32,3.726-0.996c3.593-2.062,4.834-6.646,2.772-10.238c-4.025-7.014-8.689-13.652-13.901-19.849
		c0.757-0.285,1.523-0.557,2.298-0.809c5.13-1.667,10.436-2.512,15.771-2.512c22.153,0,41.641,14.168,48.493,35.256
		C411.667,203.854,396.978,232.683,370.233,241.373z"/>
	<path d="M457.5,450c-31.232,0-56.782-24.752-58.088-55.669C441.728,350.721,465,293.402,465,232.5
		c0-62.103-24.184-120.488-68.098-164.402C352.989,24.185,294.603,0,232.5,0S112.011,24.185,68.098,68.098
		C24.184,112.012,0,170.397,0,232.5s24.184,120.488,68.098,164.402C112.011,440.815,170.397,465,232.5,465
		c57.085,0,111.019-20.448,153.47-57.855C393.023,440.16,422.41,465,457.5,465c4.142,0,7.5-3.357,7.5-7.5S461.642,450,457.5,450z
		 M15,232.5C15,112.57,112.57,15,232.5,15S450,112.57,450,232.5S352.43,450,232.5,450S15,352.43,15,232.5z"/>
</g>
<g>
</g>
<g>
</g>
<g>
</g>
<g>
</g>
<g>
</g>
<g>
</g>
<g>
</g>
<g>
</g>
<g>
</g>
<g>
</g>
<g>
</g>
<g>
</g>
<g>
</g>
<g>
</g>
<g>
</g>
</svg>
